<mxfile host="app.diagrams.net" agent="Mozilla/5.0 (Windows NT 10.0; Win64; x64; rv:109.0) Gecko/20100101 Firefox/118.0" version="24.8.8">
  <diagram name="Страница — 1" id="B7BoDMwRP4bzp1QEvwFb">
    <mxGraphModel dx="1816" dy="508" grid="1" gridSize="10" guides="1" tooltips="1" connect="1" arrows="1" fold="1" page="1" pageScale="1" pageWidth="827" pageHeight="1169" math="0" shadow="0">
      <root>
        <mxCell id="0" />
        <mxCell id="1" parent="0" />
        <mxCell id="GriyjkRmMcYONKLU3qaP-1" style="edgeStyle=orthogonalEdgeStyle;rounded=0;orthogonalLoop=1;jettySize=auto;html=1;" edge="1" parent="1" source="OIhLDXdUyic4KCReRbb--1" target="OIhLDXdUyic4KCReRbb--2">
          <mxGeometry relative="1" as="geometry">
            <Array as="points">
              <mxPoint x="430" y="110" />
              <mxPoint x="340" y="110" />
            </Array>
          </mxGeometry>
        </mxCell>
        <mxCell id="GriyjkRmMcYONKLU3qaP-3" style="edgeStyle=orthogonalEdgeStyle;rounded=0;orthogonalLoop=1;jettySize=auto;html=1;" edge="1" parent="1" source="OIhLDXdUyic4KCReRbb--1" target="OIhLDXdUyic4KCReRbb--3">
          <mxGeometry relative="1" as="geometry">
            <Array as="points">
              <mxPoint x="430" y="110" />
              <mxPoint x="230" y="110" />
            </Array>
          </mxGeometry>
        </mxCell>
        <mxCell id="GriyjkRmMcYONKLU3qaP-4" style="edgeStyle=orthogonalEdgeStyle;rounded=0;orthogonalLoop=1;jettySize=auto;html=1;" edge="1" parent="1" source="OIhLDXdUyic4KCReRbb--1" target="OIhLDXdUyic4KCReRbb--4">
          <mxGeometry relative="1" as="geometry">
            <Array as="points">
              <mxPoint x="430" y="110" />
              <mxPoint x="90" y="110" />
            </Array>
          </mxGeometry>
        </mxCell>
        <mxCell id="GriyjkRmMcYONKLU3qaP-5" style="edgeStyle=orthogonalEdgeStyle;rounded=0;orthogonalLoop=1;jettySize=auto;html=1;" edge="1" parent="1" source="OIhLDXdUyic4KCReRbb--1" target="OIhLDXdUyic4KCReRbb--5">
          <mxGeometry relative="1" as="geometry">
            <Array as="points">
              <mxPoint x="430" y="110" />
              <mxPoint x="-50" y="110" />
            </Array>
          </mxGeometry>
        </mxCell>
        <mxCell id="GriyjkRmMcYONKLU3qaP-6" style="edgeStyle=orthogonalEdgeStyle;rounded=0;orthogonalLoop=1;jettySize=auto;html=1;" edge="1" parent="1" source="OIhLDXdUyic4KCReRbb--1" target="OIhLDXdUyic4KCReRbb--6">
          <mxGeometry relative="1" as="geometry">
            <Array as="points">
              <mxPoint x="430" y="110" />
              <mxPoint x="-160" y="110" />
            </Array>
          </mxGeometry>
        </mxCell>
        <mxCell id="OIhLDXdUyic4KCReRbb--1" value="Домашняя страница" style="rounded=0;whiteSpace=wrap;html=1;" parent="1" vertex="1">
          <mxGeometry x="350" y="60" width="160" height="40" as="geometry" />
        </mxCell>
        <mxCell id="OIhLDXdUyic4KCReRbb--58" style="edgeStyle=orthogonalEdgeStyle;rounded=0;orthogonalLoop=1;jettySize=auto;html=1;" parent="1" source="OIhLDXdUyic4KCReRbb--2" target="OIhLDXdUyic4KCReRbb--37" edge="1">
          <mxGeometry relative="1" as="geometry">
            <Array as="points">
              <mxPoint x="340" y="195" />
            </Array>
          </mxGeometry>
        </mxCell>
        <mxCell id="OIhLDXdUyic4KCReRbb--59" style="edgeStyle=orthogonalEdgeStyle;rounded=0;orthogonalLoop=1;jettySize=auto;html=1;" parent="1" source="OIhLDXdUyic4KCReRbb--2" target="OIhLDXdUyic4KCReRbb--38" edge="1">
          <mxGeometry relative="1" as="geometry">
            <Array as="points">
              <mxPoint x="340" y="235" />
            </Array>
          </mxGeometry>
        </mxCell>
        <mxCell id="OIhLDXdUyic4KCReRbb--60" style="edgeStyle=orthogonalEdgeStyle;rounded=0;orthogonalLoop=1;jettySize=auto;html=1;" parent="1" source="OIhLDXdUyic4KCReRbb--2" target="OIhLDXdUyic4KCReRbb--39" edge="1">
          <mxGeometry relative="1" as="geometry">
            <Array as="points">
              <mxPoint x="340" y="275" />
            </Array>
          </mxGeometry>
        </mxCell>
        <mxCell id="OIhLDXdUyic4KCReRbb--61" style="edgeStyle=orthogonalEdgeStyle;rounded=0;orthogonalLoop=1;jettySize=auto;html=1;" parent="1" source="OIhLDXdUyic4KCReRbb--2" target="OIhLDXdUyic4KCReRbb--40" edge="1">
          <mxGeometry relative="1" as="geometry">
            <Array as="points">
              <mxPoint x="340" y="315" />
            </Array>
          </mxGeometry>
        </mxCell>
        <mxCell id="OIhLDXdUyic4KCReRbb--62" style="edgeStyle=orthogonalEdgeStyle;rounded=0;orthogonalLoop=1;jettySize=auto;html=1;" parent="1" source="OIhLDXdUyic4KCReRbb--2" target="OIhLDXdUyic4KCReRbb--41" edge="1">
          <mxGeometry relative="1" as="geometry">
            <Array as="points">
              <mxPoint x="340" y="355" />
            </Array>
          </mxGeometry>
        </mxCell>
        <mxCell id="OIhLDXdUyic4KCReRbb--63" style="edgeStyle=orthogonalEdgeStyle;rounded=0;orthogonalLoop=1;jettySize=auto;html=1;" parent="1" source="OIhLDXdUyic4KCReRbb--2" target="OIhLDXdUyic4KCReRbb--42" edge="1">
          <mxGeometry relative="1" as="geometry">
            <Array as="points">
              <mxPoint x="340" y="395" />
            </Array>
          </mxGeometry>
        </mxCell>
        <mxCell id="OIhLDXdUyic4KCReRbb--2" value="Продажа" style="rounded=0;whiteSpace=wrap;html=1;" parent="1" vertex="1">
          <mxGeometry x="290" y="130" width="100" height="30" as="geometry" />
        </mxCell>
        <mxCell id="OIhLDXdUyic4KCReRbb--66" style="edgeStyle=orthogonalEdgeStyle;rounded=0;orthogonalLoop=1;jettySize=auto;html=1;" parent="1" source="OIhLDXdUyic4KCReRbb--3" target="OIhLDXdUyic4KCReRbb--37" edge="1">
          <mxGeometry relative="1" as="geometry">
            <Array as="points">
              <mxPoint x="200" y="195" />
            </Array>
          </mxGeometry>
        </mxCell>
        <mxCell id="OIhLDXdUyic4KCReRbb--67" style="edgeStyle=orthogonalEdgeStyle;rounded=0;orthogonalLoop=1;jettySize=auto;html=1;" parent="1" source="OIhLDXdUyic4KCReRbb--3" target="OIhLDXdUyic4KCReRbb--38" edge="1">
          <mxGeometry relative="1" as="geometry">
            <Array as="points">
              <mxPoint x="200" y="235" />
            </Array>
          </mxGeometry>
        </mxCell>
        <mxCell id="OIhLDXdUyic4KCReRbb--68" style="edgeStyle=orthogonalEdgeStyle;rounded=0;orthogonalLoop=1;jettySize=auto;html=1;" parent="1" source="OIhLDXdUyic4KCReRbb--3" target="OIhLDXdUyic4KCReRbb--39" edge="1">
          <mxGeometry relative="1" as="geometry">
            <Array as="points">
              <mxPoint x="200" y="275" />
            </Array>
          </mxGeometry>
        </mxCell>
        <mxCell id="OIhLDXdUyic4KCReRbb--69" style="edgeStyle=orthogonalEdgeStyle;rounded=0;orthogonalLoop=1;jettySize=auto;html=1;" parent="1" source="OIhLDXdUyic4KCReRbb--3" target="OIhLDXdUyic4KCReRbb--40" edge="1">
          <mxGeometry relative="1" as="geometry">
            <Array as="points">
              <mxPoint x="200" y="315" />
            </Array>
          </mxGeometry>
        </mxCell>
        <mxCell id="OIhLDXdUyic4KCReRbb--70" style="edgeStyle=orthogonalEdgeStyle;rounded=0;orthogonalLoop=1;jettySize=auto;html=1;" parent="1" source="OIhLDXdUyic4KCReRbb--3" target="OIhLDXdUyic4KCReRbb--41" edge="1">
          <mxGeometry relative="1" as="geometry">
            <Array as="points">
              <mxPoint x="200" y="355" />
            </Array>
          </mxGeometry>
        </mxCell>
        <mxCell id="OIhLDXdUyic4KCReRbb--71" style="edgeStyle=orthogonalEdgeStyle;rounded=0;orthogonalLoop=1;jettySize=auto;html=1;" parent="1" source="OIhLDXdUyic4KCReRbb--3" target="OIhLDXdUyic4KCReRbb--42" edge="1">
          <mxGeometry relative="1" as="geometry">
            <Array as="points">
              <mxPoint x="200" y="395" />
            </Array>
          </mxGeometry>
        </mxCell>
        <mxCell id="OIhLDXdUyic4KCReRbb--3" value="Аренда" style="rounded=0;whiteSpace=wrap;html=1;" parent="1" vertex="1">
          <mxGeometry x="179.97" y="130" width="100" height="30" as="geometry" />
        </mxCell>
        <mxCell id="OIhLDXdUyic4KCReRbb--73" style="edgeStyle=orthogonalEdgeStyle;rounded=0;orthogonalLoop=1;jettySize=auto;html=1;" parent="1" target="OIhLDXdUyic4KCReRbb--43" edge="1">
          <mxGeometry relative="1" as="geometry">
            <mxPoint x="50.004482758620696" y="160" as="sourcePoint" />
            <Array as="points">
              <mxPoint x="49.97" y="195" />
            </Array>
          </mxGeometry>
        </mxCell>
        <mxCell id="OIhLDXdUyic4KCReRbb--74" style="edgeStyle=orthogonalEdgeStyle;rounded=0;orthogonalLoop=1;jettySize=auto;html=1;" parent="1" target="OIhLDXdUyic4KCReRbb--44" edge="1">
          <mxGeometry relative="1" as="geometry">
            <mxPoint x="50.004482758620696" y="160" as="sourcePoint" />
            <Array as="points">
              <mxPoint x="49.97" y="235" />
            </Array>
          </mxGeometry>
        </mxCell>
        <mxCell id="OIhLDXdUyic4KCReRbb--75" style="edgeStyle=orthogonalEdgeStyle;rounded=0;orthogonalLoop=1;jettySize=auto;html=1;" parent="1" target="OIhLDXdUyic4KCReRbb--45" edge="1">
          <mxGeometry relative="1" as="geometry">
            <mxPoint x="50.004482758620696" y="160" as="sourcePoint" />
            <Array as="points">
              <mxPoint x="49.97" y="275" />
            </Array>
          </mxGeometry>
        </mxCell>
        <mxCell id="OIhLDXdUyic4KCReRbb--76" style="edgeStyle=orthogonalEdgeStyle;rounded=0;orthogonalLoop=1;jettySize=auto;html=1;" parent="1" target="OIhLDXdUyic4KCReRbb--46" edge="1">
          <mxGeometry relative="1" as="geometry">
            <mxPoint x="50.004482758620696" y="160" as="sourcePoint" />
            <Array as="points">
              <mxPoint x="49.97" y="330" />
            </Array>
          </mxGeometry>
        </mxCell>
        <mxCell id="OIhLDXdUyic4KCReRbb--77" style="edgeStyle=orthogonalEdgeStyle;rounded=0;orthogonalLoop=1;jettySize=auto;html=1;" parent="1" target="OIhLDXdUyic4KCReRbb--47" edge="1">
          <mxGeometry relative="1" as="geometry">
            <mxPoint x="50.004482758620696" y="160" as="sourcePoint" />
            <Array as="points">
              <mxPoint x="49.97" y="395" />
            </Array>
          </mxGeometry>
        </mxCell>
        <mxCell id="OIhLDXdUyic4KCReRbb--78" style="edgeStyle=orthogonalEdgeStyle;rounded=0;orthogonalLoop=1;jettySize=auto;html=1;" parent="1" target="OIhLDXdUyic4KCReRbb--48" edge="1">
          <mxGeometry relative="1" as="geometry">
            <mxPoint x="50.004482758620696" y="160" as="sourcePoint" />
            <Array as="points">
              <mxPoint x="49.97" y="470" />
            </Array>
          </mxGeometry>
        </mxCell>
        <mxCell id="OIhLDXdUyic4KCReRbb--4" value="Услуги и цены" style="rounded=0;whiteSpace=wrap;html=1;" parent="1" vertex="1">
          <mxGeometry x="40" y="130" width="100" height="30" as="geometry" />
        </mxCell>
        <mxCell id="OIhLDXdUyic4KCReRbb--79" style="edgeStyle=orthogonalEdgeStyle;rounded=0;orthogonalLoop=1;jettySize=auto;html=1;" parent="1" source="OIhLDXdUyic4KCReRbb--5" target="OIhLDXdUyic4KCReRbb--53" edge="1">
          <mxGeometry relative="1" as="geometry">
            <Array as="points">
              <mxPoint x="-90" y="195" />
            </Array>
          </mxGeometry>
        </mxCell>
        <mxCell id="OIhLDXdUyic4KCReRbb--80" style="edgeStyle=orthogonalEdgeStyle;rounded=0;orthogonalLoop=1;jettySize=auto;html=1;" parent="1" source="OIhLDXdUyic4KCReRbb--5" target="OIhLDXdUyic4KCReRbb--54" edge="1">
          <mxGeometry relative="1" as="geometry">
            <Array as="points">
              <mxPoint x="-90" y="235" />
            </Array>
          </mxGeometry>
        </mxCell>
        <mxCell id="OIhLDXdUyic4KCReRbb--81" style="edgeStyle=orthogonalEdgeStyle;rounded=0;orthogonalLoop=1;jettySize=auto;html=1;" parent="1" source="OIhLDXdUyic4KCReRbb--5" target="OIhLDXdUyic4KCReRbb--55" edge="1">
          <mxGeometry relative="1" as="geometry">
            <Array as="points">
              <mxPoint x="-90" y="275" />
            </Array>
          </mxGeometry>
        </mxCell>
        <mxCell id="OIhLDXdUyic4KCReRbb--82" style="edgeStyle=orthogonalEdgeStyle;rounded=0;orthogonalLoop=1;jettySize=auto;html=1;" parent="1" source="OIhLDXdUyic4KCReRbb--5" target="OIhLDXdUyic4KCReRbb--56" edge="1">
          <mxGeometry relative="1" as="geometry">
            <Array as="points">
              <mxPoint x="-90" y="325" />
            </Array>
          </mxGeometry>
        </mxCell>
        <mxCell id="OIhLDXdUyic4KCReRbb--5" value="Вакансии" style="rounded=0;whiteSpace=wrap;html=1;" parent="1" vertex="1">
          <mxGeometry x="-100" y="130" width="100" height="30" as="geometry" />
        </mxCell>
        <mxCell id="OIhLDXdUyic4KCReRbb--85" style="edgeStyle=orthogonalEdgeStyle;rounded=0;orthogonalLoop=1;jettySize=auto;html=1;" parent="1" source="OIhLDXdUyic4KCReRbb--6" target="OIhLDXdUyic4KCReRbb--84" edge="1">
          <mxGeometry relative="1" as="geometry" />
        </mxCell>
        <mxCell id="OIhLDXdUyic4KCReRbb--6" value="Отзывы" style="rounded=0;whiteSpace=wrap;html=1;" parent="1" vertex="1">
          <mxGeometry x="-210" y="130" width="100" height="30" as="geometry" />
        </mxCell>
        <mxCell id="OIhLDXdUyic4KCReRbb--86" style="edgeStyle=orthogonalEdgeStyle;rounded=0;orthogonalLoop=1;jettySize=auto;html=1;" parent="1" source="OIhLDXdUyic4KCReRbb--7" edge="1">
          <mxGeometry relative="1" as="geometry">
            <mxPoint x="660" y="180" as="targetPoint" />
          </mxGeometry>
        </mxCell>
        <mxCell id="OIhLDXdUyic4KCReRbb--7" value="Контакты" style="rounded=0;whiteSpace=wrap;html=1;" parent="1" vertex="1">
          <mxGeometry x="610" y="130" width="100" height="30" as="geometry" />
        </mxCell>
        <mxCell id="OIhLDXdUyic4KCReRbb--93" style="edgeStyle=orthogonalEdgeStyle;rounded=0;orthogonalLoop=1;jettySize=auto;html=1;" parent="1" source="OIhLDXdUyic4KCReRbb--16" target="OIhLDXdUyic4KCReRbb--92" edge="1">
          <mxGeometry relative="1" as="geometry">
            <Array as="points">
              <mxPoint x="490" y="170" />
              <mxPoint x="430" y="170" />
            </Array>
          </mxGeometry>
        </mxCell>
        <mxCell id="OIhLDXdUyic4KCReRbb--94" style="edgeStyle=orthogonalEdgeStyle;rounded=0;orthogonalLoop=1;jettySize=auto;html=1;" parent="1" source="OIhLDXdUyic4KCReRbb--16" target="OIhLDXdUyic4KCReRbb--20" edge="1">
          <mxGeometry relative="1" as="geometry">
            <Array as="points">
              <mxPoint x="490" y="170" />
              <mxPoint x="540" y="170" />
            </Array>
          </mxGeometry>
        </mxCell>
        <mxCell id="OIhLDXdUyic4KCReRbb--16" value="Авторизация" style="rounded=0;whiteSpace=wrap;html=1;" parent="1" vertex="1">
          <mxGeometry x="440" y="130" width="100" height="30" as="geometry" />
        </mxCell>
        <mxCell id="OIhLDXdUyic4KCReRbb--104" style="edgeStyle=orthogonalEdgeStyle;rounded=0;orthogonalLoop=1;jettySize=auto;html=1;" parent="1" source="OIhLDXdUyic4KCReRbb--20" target="OIhLDXdUyic4KCReRbb--103" edge="1">
          <mxGeometry relative="1" as="geometry">
            <Array as="points">
              <mxPoint x="550" y="255" />
            </Array>
          </mxGeometry>
        </mxCell>
        <mxCell id="OIhLDXdUyic4KCReRbb--106" style="edgeStyle=orthogonalEdgeStyle;rounded=0;orthogonalLoop=1;jettySize=auto;html=1;" parent="1" source="OIhLDXdUyic4KCReRbb--20" target="OIhLDXdUyic4KCReRbb--105" edge="1">
          <mxGeometry relative="1" as="geometry">
            <Array as="points">
              <mxPoint x="550" y="305" />
            </Array>
          </mxGeometry>
        </mxCell>
        <mxCell id="OIhLDXdUyic4KCReRbb--108" style="edgeStyle=orthogonalEdgeStyle;rounded=0;orthogonalLoop=1;jettySize=auto;html=1;" parent="1" source="OIhLDXdUyic4KCReRbb--20" target="OIhLDXdUyic4KCReRbb--107" edge="1">
          <mxGeometry relative="1" as="geometry">
            <Array as="points">
              <mxPoint x="550" y="365" />
            </Array>
          </mxGeometry>
        </mxCell>
        <mxCell id="OIhLDXdUyic4KCReRbb--20" value="Администратор" style="rounded=0;whiteSpace=wrap;html=1;" parent="1" vertex="1">
          <mxGeometry x="500" y="190" width="100" height="30" as="geometry" />
        </mxCell>
        <mxCell id="OIhLDXdUyic4KCReRbb--89" style="edgeStyle=orthogonalEdgeStyle;rounded=0;orthogonalLoop=1;jettySize=auto;html=1;" parent="1" source="OIhLDXdUyic4KCReRbb--22" target="OIhLDXdUyic4KCReRbb--90" edge="1">
          <mxGeometry relative="1" as="geometry">
            <mxPoint x="580" y="180" as="targetPoint" />
          </mxGeometry>
        </mxCell>
        <mxCell id="OIhLDXdUyic4KCReRbb--22" value="Бесплатная консультация" style="rounded=0;whiteSpace=wrap;html=1;" parent="1" vertex="1">
          <mxGeometry x="720" y="130" width="100" height="30" as="geometry" />
        </mxCell>
        <mxCell id="OIhLDXdUyic4KCReRbb--37" value="Квартиры" style="rounded=0;whiteSpace=wrap;html=1;" parent="1" vertex="1">
          <mxGeometry x="220" y="180" width="100" height="30" as="geometry" />
        </mxCell>
        <mxCell id="OIhLDXdUyic4KCReRbb--38" value="Коммерческая недвижимость" style="rounded=0;whiteSpace=wrap;html=1;" parent="1" vertex="1">
          <mxGeometry x="220" y="220" width="100" height="30" as="geometry" />
        </mxCell>
        <mxCell id="OIhLDXdUyic4KCReRbb--39" value="Дома и коттеджи" style="rounded=0;whiteSpace=wrap;html=1;" parent="1" vertex="1">
          <mxGeometry x="220" y="260" width="100" height="30" as="geometry" />
        </mxCell>
        <mxCell id="OIhLDXdUyic4KCReRbb--40" value="Земельные участки" style="rounded=0;whiteSpace=wrap;html=1;" parent="1" vertex="1">
          <mxGeometry x="220" y="300" width="100" height="30" as="geometry" />
        </mxCell>
        <mxCell id="OIhLDXdUyic4KCReRbb--41" value="Гаражи и машиноместа" style="rounded=0;whiteSpace=wrap;html=1;" parent="1" vertex="1">
          <mxGeometry x="220" y="340" width="100" height="30" as="geometry" />
        </mxCell>
        <mxCell id="OIhLDXdUyic4KCReRbb--42" value="Комнаты" style="rounded=0;whiteSpace=wrap;html=1;" parent="1" vertex="1">
          <mxGeometry x="220" y="380" width="100" height="30" as="geometry" />
        </mxCell>
        <mxCell id="OIhLDXdUyic4KCReRbb--43" value="Оценка" style="rounded=0;whiteSpace=wrap;html=1;" parent="1" vertex="1">
          <mxGeometry x="69.97" y="180" width="110" height="30" as="geometry" />
        </mxCell>
        <mxCell id="OIhLDXdUyic4KCReRbb--44" value="Оформление наследства" style="rounded=0;whiteSpace=wrap;html=1;" parent="1" vertex="1">
          <mxGeometry x="69.97" y="220" width="110" height="30" as="geometry" />
        </mxCell>
        <mxCell id="OIhLDXdUyic4KCReRbb--45" value="Приватизация квартир" style="rounded=0;whiteSpace=wrap;html=1;" parent="1" vertex="1">
          <mxGeometry x="69.97" y="260" width="110" height="30" as="geometry" />
        </mxCell>
        <mxCell id="OIhLDXdUyic4KCReRbb--46" value="Подбор и покупка квартир в новостройке" style="rounded=0;whiteSpace=wrap;html=1;" parent="1" vertex="1">
          <mxGeometry x="69.97" y="300" width="110" height="50" as="geometry" />
        </mxCell>
        <mxCell id="OIhLDXdUyic4KCReRbb--47" value="БТИ кадастровая и регистрационная палаты" style="rounded=0;whiteSpace=wrap;html=1;" parent="1" vertex="1">
          <mxGeometry x="69.97" y="360" width="110" height="70" as="geometry" />
        </mxCell>
        <mxCell id="OIhLDXdUyic4KCReRbb--48" value="Сопровождение сделок с недвижемостью" style="rounded=0;whiteSpace=wrap;html=1;" parent="1" vertex="1">
          <mxGeometry x="69.97" y="440" width="110" height="60" as="geometry" />
        </mxCell>
        <mxCell id="OIhLDXdUyic4KCReRbb--53" value="Риелторы без опыта работы" style="rounded=0;whiteSpace=wrap;html=1;" parent="1" vertex="1">
          <mxGeometry x="-70" y="180" width="100" height="30" as="geometry" />
        </mxCell>
        <mxCell id="OIhLDXdUyic4KCReRbb--54" value="Специалисты и эксперты" style="rounded=0;whiteSpace=wrap;html=1;" parent="1" vertex="1">
          <mxGeometry x="-70" y="220" width="100" height="30" as="geometry" />
        </mxCell>
        <mxCell id="OIhLDXdUyic4KCReRbb--55" value="Руководители офисов" style="rounded=0;whiteSpace=wrap;html=1;" parent="1" vertex="1">
          <mxGeometry x="-70" y="260" width="100" height="30" as="geometry" />
        </mxCell>
        <mxCell id="OIhLDXdUyic4KCReRbb--56" value="Руководители со своим персоналом" style="rounded=0;whiteSpace=wrap;html=1;" parent="1" vertex="1">
          <mxGeometry x="-70" y="300" width="100" height="50" as="geometry" />
        </mxCell>
        <mxCell id="OIhLDXdUyic4KCReRbb--84" value="&lt;div&gt;Поле создание&lt;/div&gt;&lt;div&gt;отзыва&lt;br&gt;&lt;/div&gt;" style="rounded=0;whiteSpace=wrap;html=1;" parent="1" vertex="1">
          <mxGeometry x="-210" y="180" width="100" height="30" as="geometry" />
        </mxCell>
        <mxCell id="OIhLDXdUyic4KCReRbb--87" value="Контактная информация" style="rounded=0;whiteSpace=wrap;html=1;" parent="1" vertex="1">
          <mxGeometry x="610" y="180" width="100" height="30" as="geometry" />
        </mxCell>
        <mxCell id="OIhLDXdUyic4KCReRbb--90" value="Окно создания&lt;br&gt;&lt;div&gt;заявки на консультацию&lt;/div&gt;" style="rounded=0;whiteSpace=wrap;html=1;" parent="1" vertex="1">
          <mxGeometry x="720" y="180" width="100" height="50" as="geometry" />
        </mxCell>
        <mxCell id="OIhLDXdUyic4KCReRbb--99" style="edgeStyle=orthogonalEdgeStyle;rounded=0;orthogonalLoop=1;jettySize=auto;html=1;" parent="1" source="OIhLDXdUyic4KCReRbb--92" target="OIhLDXdUyic4KCReRbb--95" edge="1">
          <mxGeometry relative="1" as="geometry">
            <Array as="points">
              <mxPoint x="470" y="255" />
            </Array>
          </mxGeometry>
        </mxCell>
        <mxCell id="OIhLDXdUyic4KCReRbb--102" style="edgeStyle=orthogonalEdgeStyle;rounded=0;orthogonalLoop=1;jettySize=auto;html=1;" parent="1" source="OIhLDXdUyic4KCReRbb--92" target="OIhLDXdUyic4KCReRbb--98" edge="1">
          <mxGeometry relative="1" as="geometry">
            <Array as="points">
              <mxPoint x="470" y="350" />
            </Array>
          </mxGeometry>
        </mxCell>
        <mxCell id="OIhLDXdUyic4KCReRbb--112" style="edgeStyle=orthogonalEdgeStyle;rounded=0;orthogonalLoop=1;jettySize=auto;html=1;" parent="1" source="OIhLDXdUyic4KCReRbb--92" target="OIhLDXdUyic4KCReRbb--111" edge="1">
          <mxGeometry relative="1" as="geometry">
            <Array as="points">
              <mxPoint x="470" y="405" />
            </Array>
          </mxGeometry>
        </mxCell>
        <mxCell id="OIhLDXdUyic4KCReRbb--114" style="edgeStyle=orthogonalEdgeStyle;rounded=0;orthogonalLoop=1;jettySize=auto;html=1;" parent="1" source="OIhLDXdUyic4KCReRbb--92" target="OIhLDXdUyic4KCReRbb--113" edge="1">
          <mxGeometry relative="1" as="geometry">
            <Array as="points">
              <mxPoint x="470" y="445" />
            </Array>
          </mxGeometry>
        </mxCell>
        <mxCell id="OIhLDXdUyic4KCReRbb--92" value="Менеджер" style="rounded=0;whiteSpace=wrap;html=1;" parent="1" vertex="1">
          <mxGeometry x="380" y="190" width="100" height="30" as="geometry" />
        </mxCell>
        <mxCell id="OIhLDXdUyic4KCReRbb--95" value="Обработка заявок" style="rounded=0;whiteSpace=wrap;html=1;" parent="1" vertex="1">
          <mxGeometry x="350" y="240" width="100" height="30" as="geometry" />
        </mxCell>
        <mxCell id="OIhLDXdUyic4KCReRbb--96" value="Статистика" style="rounded=0;whiteSpace=wrap;html=1;" parent="1" vertex="1">
          <mxGeometry x="350" y="280" width="100" height="30" as="geometry" />
        </mxCell>
        <mxCell id="OIhLDXdUyic4KCReRbb--98" value="Создание заявок на внесение изменений" style="rounded=0;whiteSpace=wrap;html=1;" parent="1" vertex="1">
          <mxGeometry x="350" y="320" width="100" height="60" as="geometry" />
        </mxCell>
        <mxCell id="OIhLDXdUyic4KCReRbb--101" style="edgeStyle=orthogonalEdgeStyle;rounded=0;orthogonalLoop=1;jettySize=auto;html=1;" parent="1" source="OIhLDXdUyic4KCReRbb--92" target="OIhLDXdUyic4KCReRbb--96" edge="1">
          <mxGeometry relative="1" as="geometry">
            <mxPoint x="470" y="220" as="sourcePoint" />
            <mxPoint x="400" y="280" as="targetPoint" />
            <Array as="points">
              <mxPoint x="470" y="295" />
            </Array>
          </mxGeometry>
        </mxCell>
        <mxCell id="OIhLDXdUyic4KCReRbb--103" value="Доступ ко всем страницам" style="rounded=0;whiteSpace=wrap;html=1;" parent="1" vertex="1">
          <mxGeometry x="570" y="240" width="100" height="30" as="geometry" />
        </mxCell>
        <mxCell id="OIhLDXdUyic4KCReRbb--105" value="Обработка заявок менеджера" style="rounded=0;whiteSpace=wrap;html=1;" parent="1" vertex="1">
          <mxGeometry x="570" y="280" width="100" height="50" as="geometry" />
        </mxCell>
        <mxCell id="OIhLDXdUyic4KCReRbb--117" style="edgeStyle=orthogonalEdgeStyle;rounded=0;orthogonalLoop=1;jettySize=auto;html=1;" parent="1" source="OIhLDXdUyic4KCReRbb--107" target="OIhLDXdUyic4KCReRbb--109" edge="1">
          <mxGeometry relative="1" as="geometry">
            <Array as="points">
              <mxPoint x="620" y="400" />
              <mxPoint x="650" y="400" />
            </Array>
          </mxGeometry>
        </mxCell>
        <mxCell id="OIhLDXdUyic4KCReRbb--118" style="edgeStyle=orthogonalEdgeStyle;rounded=0;orthogonalLoop=1;jettySize=auto;html=1;" parent="1" source="OIhLDXdUyic4KCReRbb--107" target="OIhLDXdUyic4KCReRbb--110" edge="1">
          <mxGeometry relative="1" as="geometry">
            <Array as="points">
              <mxPoint x="620" y="400" />
              <mxPoint x="540" y="400" />
            </Array>
          </mxGeometry>
        </mxCell>
        <mxCell id="OIhLDXdUyic4KCReRbb--119" style="edgeStyle=orthogonalEdgeStyle;rounded=0;orthogonalLoop=1;jettySize=auto;html=1;" parent="1" source="OIhLDXdUyic4KCReRbb--107" target="OIhLDXdUyic4KCReRbb--116" edge="1">
          <mxGeometry relative="1" as="geometry">
            <Array as="points">
              <mxPoint x="620" y="400" />
              <mxPoint x="760" y="400" />
            </Array>
          </mxGeometry>
        </mxCell>
        <mxCell id="OIhLDXdUyic4KCReRbb--107" value="Вкладка администратора" style="rounded=0;whiteSpace=wrap;html=1;" parent="1" vertex="1">
          <mxGeometry x="570" y="340" width="100" height="50" as="geometry" />
        </mxCell>
        <mxCell id="OIhLDXdUyic4KCReRbb--109" value="Список клиентов и сотрудников" style="rounded=0;whiteSpace=wrap;html=1;" parent="1" vertex="1">
          <mxGeometry x="600" y="420" width="100" height="30" as="geometry" />
        </mxCell>
        <mxCell id="OIhLDXdUyic4KCReRbb--110" value="Статические данные" style="rounded=0;whiteSpace=wrap;html=1;" parent="1" vertex="1">
          <mxGeometry x="490" y="420" width="100" height="30" as="geometry" />
        </mxCell>
        <mxCell id="OIhLDXdUyic4KCReRbb--111" value="Список клиентов" style="rounded=0;whiteSpace=wrap;html=1;" parent="1" vertex="1">
          <mxGeometry x="350" y="390" width="100" height="30" as="geometry" />
        </mxCell>
        <mxCell id="OIhLDXdUyic4KCReRbb--113" value="Список сотрудников" style="rounded=0;whiteSpace=wrap;html=1;" parent="1" vertex="1">
          <mxGeometry x="350" y="430" width="100" height="30" as="geometry" />
        </mxCell>
        <mxCell id="OIhLDXdUyic4KCReRbb--116" value="Формы для редактирования" style="rounded=0;whiteSpace=wrap;html=1;" parent="1" vertex="1">
          <mxGeometry x="710" y="420" width="100" height="30" as="geometry" />
        </mxCell>
      </root>
    </mxGraphModel>
  </diagram>
</mxfile>
